ffmpeg version 4.3.1 Copyright (c) 2000-2020 the FFmpeg developers
  built with gcc 10.2.1 (GCC) 20200726
  configuration: --enable-gpl --enable-version3 --enable-sdl2 --enable-fontconfig --enable-gnutls --enable-iconv --enable-libass --enable-libdav1d --enable-libbluray --enable-libfreetype --enable-libmp3lame --enable-libopencore-amrnb --enable-libopencore-amrwb --enable-libopenjpeg --enable-libopus --enable-libshine --enable-libsnappy --enable-libsoxr --enable-libsrt --enable-libtheora --enable-libtwolame --enable-libvpx --enable-libwavpack --enable-libwebp --enable-libx264 --enable-libx265 --enable-libxml2 --enable-libzimg --enable-lzma --enable-zlib --enable-gmp --enable-libvidstab --enable-libvmaf --enable-libvorbis --enable-libvo-amrwbenc --enable-libmysofa --enable-libspeex --enable-libxvid --enable-libaom --enable-libgsm --enable-librav1e --disable-w32threads --enable-libmfx --enable-ffnvcodec --enable-cuda-llvm --enable-cuvid --enable-d3d11va --enable-nvenc --enable-nvdec --enable-dxva2 --enable-avisynth --enable-libopenmpt --enable-amf
  libavutil      56. 51.100 / 56. 51.100
  libavcodec     58. 91.100 / 58. 91.100
  libavformat    58. 45.100 / 58. 45.100
  libavdevice    58. 10.100 / 58. 10.100
  libavfilter     7. 85.100 /  7. 85.100
  libswscale      5.  7.100 /  5.  7.100
  libswresample   3.  7.100 /  3.  7.100
  libpostproc    55.  7.100 / 55.  7.100
Splitting the commandline.
Reading option '-v' ... matched as option 'v' (set logging level) with argument 'debug'.
Reading option '-nostdin' ... matched as option 'stdin' (enable or disable interaction on standard input) with argument 0.
Reading option '-progress' ... matched as option 'progress' (write program-readable progress information) with argument 'C:/Users/Wyatt/AppData/Local/Temp/KritaFFmpegProgress.w26676'.
Reading option '-r' ... matched as option 'r' (set frame rate (Hz value, fraction or abbreviation)) with argument '3'.
Reading option '-start_number' ... matched as AVOption 'start_number' with argument '3'.
Reading option '-i' ... matched as input url with argument 'D:/Documents/[-SPRINGBOARD-]/personalSite/v3/whale/frame%04d.png'.
Reading option '-vf' ... matched as option 'vf' (set video filters) with argument 'palettegen'.
Reading option '-y' ... matched as option 'y' (overwrite output files) with argument '1'.
Reading option 'D:/Documents/[-SPRINGBOARD-]/personalSite/v3/whale/palette.png' ... matched as output url.
Finished splitting the commandline.
Parsing a group of options: global .
Applying option v (set logging level) with argument debug.
Applying option nostdin (enable or disable interaction on standard input) with argument 0.
Applying option progress (write program-readable progress information) with argument C:/Users/Wyatt/AppData/Local/Temp/KritaFFmpegProgress.w26676.
[file @ 00000260987bec80] Setting default whitelist 'file,crypto,data'
Applying option y (overwrite output files) with argument 1.
Successfully parsed a group of options.
Parsing a group of options: input url D:/Documents/[-SPRINGBOARD-]/personalSite/v3/whale/frame%04d.png.
Applying option r (set frame rate (Hz value, fraction or abbreviation)) with argument 3.
Successfully parsed a group of options.
Opening an input file: D:/Documents/[-SPRINGBOARD-]/personalSite/v3/whale/frame%04d.png.
[image2 @ 00000260987ff800] Opening 'D:/Documents/[-SPRINGBOARD-]/personalSite/v3/whale/frame0003.png' for reading
[file @ 0000026098802ec0] Setting default whitelist 'file,crypto,data'
[AVIOContext @ 000002609880b080] Statistics: 106594 bytes read, 0 seeks
[image2 @ 00000260987ff800] Opening 'D:/Documents/[-SPRINGBOARD-]/personalSite/v3/whale/frame0004.png' for reading
[file @ 000002609880a9c0] Setting default whitelist 'file,crypto,data'
[AVIOContext @ 000002609880ab40] Statistics: 103038 bytes read, 0 seeks
[image2 @ 00000260987ff800] Opening 'D:/Documents/[-SPRINGBOARD-]/personalSite/v3/whale/frame0005.png' for reading
[file @ 000002609880aa80] Setting default whitelist 'file,crypto,data'
[AVIOContext @ 000002609880ad80] Statistics: 100724 bytes read, 0 seeks
[image2 @ 00000260987ff800] Opening 'D:/Documents/[-SPRINGBOARD-]/personalSite/v3/whale/frame0006.png' for reading
[file @ 000002609880aa80] Setting default whitelist 'file,crypto,data'
[AVIOContext @ 000002609880af40] Statistics: 105256 bytes read, 0 seeks
[image2 @ 00000260987ff800] Opening 'D:/Documents/[-SPRINGBOARD-]/personalSite/v3/whale/frame0007.png' for reading
[file @ 000002609880af40] Setting default whitelist 'file,crypto,data'
[AVIOContext @ 0000026099499c80] Statistics: 104707 bytes read, 0 seeks
[image2 @ 00000260987ff800] Opening 'D:/Documents/[-SPRINGBOARD-]/personalSite/v3/whale/frame0008.png' for reading
[file @ 0000026099499c80] Setting default whitelist 'file,crypto,data'
[AVIOContext @ 00000260994b3740] Statistics: 102368 bytes read, 0 seeks
[image2 @ 00000260987ff800] Opening 'D:/Documents/[-SPRINGBOARD-]/personalSite/v3/whale/frame0009.png' for reading
[file @ 00000260994b3740] Setting default whitelist 'file,crypto,data'
[AVIOContext @ 0000026098803000] Statistics: 102277 bytes read, 0 seeks
[image2 @ 00000260987ff800] Opening 'D:/Documents/[-SPRINGBOARD-]/personalSite/v3/whale/frame0010.png' for reading
[file @ 0000026098803000] Setting default whitelist 'file,crypto,data'
[AVIOContext @ 00000260988039c0] Statistics: 102196 bytes read, 0 seeks
[image2 @ 00000260987ff800] Opening 'D:/Documents/[-SPRINGBOARD-]/personalSite/v3/whale/frame0011.png' for reading
[file @ 00000260988039c0] Setting default whitelist 'file,crypto,data'
[AVIOContext @ 0000026098803ac0] Statistics: 103791 bytes read, 0 seeks
[image2 @ 00000260987ff800] Opening 'D:/Documents/[-SPRINGBOARD-]/personalSite/v3/whale/frame0012.png' for reading
[file @ 0000026098803a80] Setting default whitelist 'file,crypto,data'
[AVIOContext @ 0000026098803b40] Statistics: 105339 bytes read, 0 seeks
Input #0, image2, from 'D:/Documents/[-SPRINGBOARD-]/personalSite/v3/whale/frame%04d.png':
  Duration: 00:00:00.40, start: 0.000000, bitrate: N/A
    Stream #0:0, 10, 1/25: Video: png, 1 reference frame, rgba(pc), 2550x1225 [SAR 11811:11811 DAR 102:49], 0/1, 25 fps, 25 tbr, 25 tbn, 25 tbc
Successfully opened the file.
Parsing a group of options: output url D:/Documents/[-SPRINGBOARD-]/personalSite/v3/whale/palette.png.
Applying option vf (set video filters) with argument palettegen.
Successfully parsed a group of options.
Opening an output file: D:/Documents/[-SPRINGBOARD-]/personalSite/v3/whale/palette.png.
Successfully opened the file.
detected 12 logical cores
Stream mapping:
  Stream #0:0 -> #0:0 (png (native) -> png (native))
cur_dts is invalid st:0 (0) [init:0 i_done:0 finish:0] (this is harmless if it occurs once at the start per stream)
    Last message repeated 10 times
[graph 0 input from stream 0:0 @ 000002609880ad00] Setting 'video_size' to value '2550x1225'
[graph 0 input from stream 0:0 @ 000002609880ad00] Setting 'pix_fmt' to value '26'
[graph 0 input from stream 0:0 @ 000002609880ad00] Setting 'time_base' to value '1/3'
[graph 0 input from stream 0:0 @ 000002609880ad00] Setting 'pixel_aspect' to value '11811/11811'
[graph 0 input from stream 0:0 @ 000002609880ad00] Setting 'frame_rate' to value '3/1'
[graph 0 input from stream 0:0 @ 000002609880ad00] w:2550 h:1225 pixfmt:rgba tb:1/3 fr:3/1 sar:11811/11811
[format @ 00000260988039c0] Setting 'pix_fmts' to value 'rgb24|rgba|rgb48be|rgba64be|pal8|gray|ya8|gray16be|ya16be|monob'
[auto_scaler_0 @ 00000260995953c0] Setting 'flags' to value 'bicubic'
[auto_scaler_0 @ 00000260995953c0] w:iw h:ih flags:'bicubic' interl:0
[Parsed_palettegen_0 @ 0000026096c97c00] auto-inserting filter 'auto_scaler_0' between the filter 'graph 0 input from stream 0:0' and the filter 'Parsed_palettegen_0'
[auto_scaler_1 @ 0000026099593bc0] Setting 'flags' to value 'bicubic'
[auto_scaler_1 @ 0000026099593bc0] w:iw h:ih flags:'bicubic' interl:0
[format @ 00000260988039c0] auto-inserting filter 'auto_scaler_1' between the filter 'Parsed_palettegen_0' and the filter 'format'
[AVFilterGraph @ 00000260994b3740] query_formats: 4 queried, 1 merged, 2 already done, 0 delayed
[auto_scaler_1 @ 0000026099593bc0] picking rgba out of 10 ref:bgra alpha:1
[swscaler @ 0000026099639200] Forcing full internal H chroma due to input having non subsampled chroma
[auto_scaler_0 @ 00000260995953c0] w:2550 h:1225 fmt:rgba sar:11811/11811 -> w:2550 h:1225 fmt:bgra sar:1/1 flags:0x4
[swscaler @ 0000026099650200] Forcing full internal H chroma due to input having non subsampled chroma
[auto_scaler_1 @ 0000026099593bc0] w:16 h:16 fmt:bgra sar:1/1 -> w:16 h:16 fmt:rgba sar:1/1 flags:0x4
Output #0, image2, to 'D:/Documents/[-SPRINGBOARD-]/personalSite/v3/whale/palette.png':
  Metadata:
    encoder         : Lavf58.45.100
    Stream #0:0, 0, 1/3: Video: png, 1 reference frame, rgba, 16x16 [SAR 1:1 DAR 1:1], 0/1, q=2-31, 200 kb/s, 3 fps, 3 tbn, 3 tbc
    Metadata:
      encoder         : Lavc58.91.100 png
cur_dts is invalid st:0 (0) [init:1 i_done:0 finish:0] (this is harmless if it occurs once at the start per stream)
    Last message repeated 9 times
[Parsed_palettegen_0 @ 0000026096c97c00] 255(+1) colors generated out of 446 colors; ratio=0.571749
[Parsed_palettegen_0 @ 0000026096c97c00] Dupped color: FF232323
    Last message repeated 12 times
[Parsed_palettegen_0 @ 0000026096c97c00] Dupped color: FF242424
    Last message repeated 95 times
[Parsed_palettegen_0 @ 0000026096c97c00] Dupped color: FF252525
    Last message repeated 129 times
[Parsed_palettegen_0 @ 0000026096c97c00] Dupped color: FF262626
    Last message repeated 6 times
[Parsed_palettegen_0 @ 0000026096c97c00] Dupped color: FF272727
    Last message repeated 1 times
cur_dts is invalid st:0 (0) [init:1 i_done:0 finish:0] (this is harmless if it occurs once at the start per stream)
Clipping frame in rate conversion by 0.000008
cur_dts is invalid st:0 (0) [init:1 i_done:0 finish:0] (this is harmless if it occurs once at the start per stream)
[out_0_0 @ 0000026098802f40] EOF on sink link out_0_0:default.
No more output streams to write to, finishing.
[image2 @ 0000026098802100] Opening 'D:/Documents/[-SPRINGBOARD-]/personalSite/v3/whale/palette.png' for writing
[file @ 0000026099637d80] Setting default whitelist 'file,crypto,data'
[AVIOContext @ 000002609958c400] Statistics: 0 seeks, 1 writeouts
frame=    1 fps=0.0 q=-0.0 Lsize=N/A time=00:00:00.33 bitrate=N/A speed=0.766x    
[AVIOContext @ 00000260987ff6c0] Statistics: 0 seeks, 1 writeouts
video:0kB audio:0kB subtitle:0kB other streams:0kB global headers:0kB muxing overhead: unknown
Input file #0 (D:/Documents/[-SPRINGBOARD-]/personalSite/v3/whale/frame%04d.png):
  Input stream #0:0 (video): 10 packets read (1036290 bytes); 10 frames decoded; 
  Total: 10 packets (1036290 bytes) demuxed
Output file #0 (D:/Documents/[-SPRINGBOARD-]/personalSite/v3/whale/palette.png):
  Output stream #0:0 (video): 1 frames encoded; 1 packets muxed (136 bytes); 
  Total: 1 packets (136 bytes) muxed
10 frames successfully decoded, 0 decoding errors
